<svg width="368" height="380" viewBox="0 0 368 380" fill="none" xmlns="http://www.w3.org/2000/svg">
<path d="M238.544 344.403C236.583 349.273 234.689 354.684 233.336 359.621C232.119 364.288 231.375 368.481 231.645 371.525C231.983 374.974 234.689 377.747 238.138 378.017C252.341 379.37 288.458 381.805 289.405 377.815C290.961 371.119 281.83 365.708 275.405 362.462C272.361 360.974 270.062 358.471 268.709 355.495C267.965 353.872 267.491 352.046 267.424 350.22L238.544 344.403Z" fill="#FC6054"/>
<path d="M238.544 344.403C236.582 349.273 234.689 354.684 233.336 359.621C243.955 366.384 259.984 360.027 268.641 355.563C267.897 353.94 267.424 352.114 267.356 350.287L238.544 344.403Z" fill="#E64B38"/>
<path d="M266.207 376.056C256.67 376.056 244.902 375.244 234.757 372.201C234.419 372.066 234.216 371.727 234.283 371.389C234.419 371.051 234.757 370.848 235.095 370.916C256.062 377.273 284.265 373.756 284.536 373.756C284.941 373.689 285.212 373.959 285.28 374.365C285.347 374.703 285.077 375.041 284.671 375.109C284.671 375.109 276.758 376.056 266.207 376.056ZM271.077 362.8C270.874 362.8 270.671 362.732 270.535 362.529C270.333 362.259 270.4 361.785 270.671 361.582L273.714 359.418C273.985 359.215 274.458 359.283 274.661 359.553C274.864 359.824 274.796 360.297 274.526 360.5C271.415 362.664 271.482 362.8 271.077 362.8ZM273.106 364.829C272.903 364.558 272.97 364.085 273.241 363.882L276.284 361.717C276.555 361.515 277.028 361.582 277.231 361.853C277.434 362.123 277.366 362.597 277.096 362.8L274.052 364.964C273.714 365.167 273.308 365.099 273.106 364.829ZM267.965 360.162C267.762 359.891 267.83 359.418 268.101 359.215L271.144 357.051C271.415 356.848 271.888 356.915 272.091 357.186C272.294 357.457 272.226 357.93 271.956 358.133L268.912 360.297C268.642 360.568 268.168 360.5 267.965 360.162Z" fill="#112544"/>
<path d="M54.5795 328.374C50.792 332.026 46.8692 336.219 43.6228 340.142C40.5792 343.862 38.212 347.447 37.2651 350.287C36.1154 353.601 37.5357 357.186 40.5116 358.877C52.9563 365.843 85.0149 382.752 87.4497 379.505C91.5754 374.027 85.4207 365.302 80.8892 359.824C78.7249 357.254 77.5751 354.007 77.5751 350.761C77.5751 348.935 77.8457 347.109 78.522 345.418L54.5795 328.374Z" fill="#FC6054"/>
<path d="M54.5788 328.374C50.7913 332.026 46.8685 336.219 43.6221 340.142C50.5884 350.626 67.8351 351.302 77.5745 350.761C77.5745 348.935 77.845 347.109 78.5213 345.418L54.5788 328.374Z" fill="#E64B38"/>
<path d="M84.4055 375.176C84.135 375.109 56.6755 366.722 39.8346 352.248C39.564 351.978 39.4964 351.572 39.7669 351.301C40.0375 351.031 40.4433 350.963 40.7138 351.234C57.3519 365.505 84.4732 373.824 84.7437 373.891C85.0819 374.027 85.2848 374.365 85.2171 374.703C85.0819 375.109 84.7437 375.312 84.4055 375.176ZM76.4247 357.93C76.3571 357.591 76.56 357.186 76.9658 357.118L80.618 356.374C80.9562 356.306 81.362 356.509 81.4296 356.915C81.4973 357.253 81.2944 357.659 80.8886 357.727L77.2363 358.471C76.8981 358.471 76.4923 358.268 76.4247 357.93ZM77.845 361.041C77.7774 360.703 77.9803 360.297 78.3861 360.229L82.0383 359.485C82.3765 359.418 82.7823 359.62 82.8499 360.026C82.9176 360.432 82.7147 360.77 82.3089 360.838L78.6566 361.582C78.2508 361.65 77.9127 361.447 77.845 361.041ZM75.072 354.751C75.0044 354.413 75.2073 354.007 75.6131 353.939L79.2653 353.195C79.6035 353.128 80.0093 353.33 80.077 353.736C80.1446 354.074 79.9417 354.48 79.5359 354.548L75.8836 355.292C75.4778 355.36 75.1396 355.089 75.072 354.751ZM137.972 19.2853H131.141C130.735 19.2853 130.464 19.0148 130.464 18.609C130.464 18.2032 130.735 17.9326 131.141 17.9326H137.972C138.378 17.9326 138.648 18.2032 138.648 18.609C138.648 19.0148 138.31 19.2853 137.972 19.2853Z" fill="#112544"/>
<path d="M274.525 340.954C273.376 347.041 272.564 350.761 272.564 350.761C270.332 354.684 228.467 351.167 228.467 347.65C229.752 315.794 240.641 287.929 227.925 267.841C219.606 254.653 202.495 254.45 185.519 240.517C179.905 251.271 165.702 278.189 158.127 287.658C144.059 305.175 88.3961 348.055 88.3961 348.055C81.6327 354.075 38.8202 336.625 43.9604 329.388C43.9604 329.388 102.87 279.136 111.459 255.667C124.851 219.077 144.127 189.521 164.214 173.897L201.954 179.714L217.375 182.081C217.375 182.081 220.215 184.245 224.679 187.83C240.167 200.275 275.269 230.034 280.951 247.078C287.511 266.894 278.719 319.108 274.525 340.954Z" fill="#8D95FF"/>
<path d="M274.526 340.954C273.376 347.041 272.565 350.761 272.565 350.761C270.333 354.684 228.467 351.167 228.467 347.65C229.752 315.794 240.641 287.929 227.926 267.841C219.607 254.653 202.496 254.45 185.52 240.517C188.698 244.169 208.583 162.873 222.448 172.68C226.912 175.453 226.641 183.434 224.747 187.965C224.612 188.371 224.409 188.709 224.206 189.047C221.839 193.241 217.849 196.284 214.061 199.193C210.206 202.169 206.351 205.28 204.254 209.676C201.211 216.034 202.834 223.947 206.757 229.831C210.679 235.715 216.496 240.044 222.448 243.899C228.4 247.754 234.487 251.406 239.492 256.479C246.323 263.445 250.516 272.981 250.989 282.721C251.463 292.257 248.555 301.591 248.014 311.127C247.472 320.664 250.11 331.417 258.294 336.219C262.69 338.79 267.898 339.263 272.835 340.48C273.376 340.616 273.917 340.751 274.526 340.954Z" fill="#757BFF"/>
<path d="M165.025 209.744C165.025 209.338 165.296 209.067 165.702 209.067C175.982 208.662 179.026 202.439 177.2 196.42C177.064 196.082 177.267 195.676 177.673 195.608C178.011 195.473 178.417 195.676 178.485 196.082C180.514 202.98 176.861 210.014 165.769 210.42C165.296 210.42 165.025 210.15 165.025 209.744Z" fill="#112544"/>
<path d="M163.741 202.98C166.987 204.807 172.804 211.029 171.992 215.222C171.248 218.942 165.364 212.449 165.364 212.449C165.364 212.449 168.407 224.488 166.108 225.773C164.823 226.517 161.982 221.783 161.441 216.102C161.441 216.102 162.861 227.058 160.427 227.599C157.451 228.276 157.518 217.454 157.518 217.454C157.518 217.454 158.465 227.937 155.692 228.14C152.987 228.343 154.272 215.899 154.272 215.899C154.272 215.899 153.934 225.638 151.567 225.367C149.605 225.097 149.808 215.087 150.079 211.638C150.281 207.647 151.972 196.42 163.741 202.98Z" fill="#FCBBA4"/>
<path d="M177.809 254.991C177.47 254.788 177.403 254.382 177.538 254.044C198.099 218.806 205.2 184.651 205.268 184.313C205.336 183.975 205.674 183.704 206.08 183.772C206.418 183.84 206.688 184.178 206.621 184.584C206.553 184.922 199.384 219.28 178.688 254.72C178.552 255.058 178.147 255.194 177.809 254.991Z" fill="#112544"/>
<path d="M219.809 260.469C216.157 257.967 211.896 256.005 207.297 253.909C200.466 250.797 192.756 247.28 185.113 240.99C184.842 240.788 184.775 240.314 185.045 240.044C185.248 239.773 185.722 239.705 185.992 239.976C193.5 246.131 201.142 249.648 207.906 252.691C212.505 254.788 216.901 256.817 220.621 259.319C220.959 259.522 221.027 259.928 220.824 260.266C220.553 260.604 220.147 260.672 219.809 260.469Z" fill="#112544"/>
<path d="M159.345 178.09C159.345 178.09 160.292 149.955 169.152 136.022C169.152 136.022 161.915 86.1755 207.906 90.1659C241.656 93.0742 257.888 111.132 257.888 111.132C257.888 111.132 247.404 192.496 236.583 197.637C224.882 203.183 207.094 175.182 187.007 182.757C166.784 190.332 159.345 178.09 159.345 178.09Z" fill="#66D3D8"/>
<path d="M328.092 139.607C303.27 175.859 277.975 198.99 255.047 192.7C252.883 192.091 250.786 191.144 248.892 189.792C224.95 173.695 218.728 108.022 218.728 108.022L232.998 95.8477C274.932 107.751 272.023 154.284 272.023 154.284C275.134 149.549 278.922 145.221 282.912 141.365C296.507 128.244 312.604 120.737 312.604 120.737L328.092 139.607Z" fill="#66D3D8"/>
<path d="M328.092 139.607C303.271 175.859 277.975 198.99 255.047 192.7C252.883 192.091 250.786 191.144 248.893 189.792C250.651 188.304 252.951 187.222 255.047 186.41C261.675 183.84 268.709 182.217 275.202 179.376C281.695 176.468 287.918 172.139 291.096 165.782C294.275 159.424 293.599 150.767 288.188 146.168C286.43 144.68 284.603 143.936 282.913 141.366C296.507 128.245 312.604 120.737 312.604 120.737L328.092 139.607Z" fill="#47B6C3"/>
<path d="M352.44 178.902C352.102 179.24 351.696 179.443 351.223 179.511C318.217 183.366 290.42 148.67 271.888 91.5187C271.55 90.4366 272.226 89.2868 273.376 89.0839C292.719 85.6345 307.869 71.7695 312.13 67.5086C312.807 66.8322 313.889 66.7646 314.7 67.3733C325.928 76.5039 339.116 83.7408 354.131 89.1515C354.672 89.3544 355.078 89.7602 355.281 90.2337C368.47 125.065 372.663 156.38 352.44 178.902Z" fill="white"/>
<path d="M234.351 61.1517L234.487 61.0841C234.757 60.9488 234.96 61.287 234.69 61.4222C234.622 61.4222 234.622 61.4899 234.554 61.4899C234.284 61.6252 234.081 61.287 234.351 61.1517ZM228.805 62.3691C228.535 62.3691 228.264 62.3015 227.994 62.3015C227.859 62.3015 227.791 62.0986 227.859 61.9633C227.926 61.8957 227.994 61.8957 228.061 61.8957C228.332 61.8957 228.603 61.9633 228.873 61.9633C229.076 61.9633 229.076 62.3691 228.805 62.3691Z" fill="#FF987A"/>
<path d="M228.804 62.3687C228.669 62.3687 228.602 62.2334 228.602 62.1658C228.602 62.0305 228.737 61.9629 228.804 61.9629C229.548 62.0305 229.954 62.0305 230.09 62.0305C230.36 62.0305 230.36 62.4363 230.09 62.4363C229.751 62.4363 229.278 62.4363 228.804 62.3687Z" fill="#FF987A"/>
<path d="M230.293 62.4361C230.022 62.4361 230.022 62.0303 230.293 62.0303C230.496 62.0303 230.766 62.0303 230.969 62.0303C231.104 62.0303 231.172 62.0979 231.172 62.2332C231.172 62.3684 231.104 62.4361 230.969 62.4361C230.766 62.3684 230.496 62.4361 230.293 62.4361Z" fill="#FF987A"/>
<path d="M208.244 93.3449C209.394 94.9681 211.017 97.2001 213.181 99.0262C219.201 104.234 228.602 101.529 230.969 93.9536L233.742 85.0935C233.742 85.0935 241.182 86.852 243.617 79.7505C244.293 77.7891 244.158 74.2721 243.482 70.2817C243.279 68.7937 242.94 67.2381 242.602 65.6149C241.858 61.9627 240.844 58.1752 239.829 54.9287C237.733 56.0109 234.621 56.4167 230.09 55.7403C230.09 55.7403 227.385 61.4892 219.336 57.7693C219.336 57.7693 223.665 66.3589 215.751 69.0642C214.331 69.5377 212.776 69.1995 211.22 68.3879C211.626 70.7551 212.505 71.702 214.196 73.5957L207.635 88.34C207.027 89.9632 207.23 91.857 208.244 93.3449Z" fill="#FCBBA4"/>
<path d="M212.708 99.5673C210.476 97.606 208.717 95.3064 207.635 93.7508C206.891 92.6687 206.553 91.3836 206.621 90.0986C206.621 89.6928 206.959 89.4222 207.365 89.4898C207.771 89.4898 208.041 89.828 207.973 90.2338C207.906 91.2483 208.176 92.1952 208.785 93.0068C209.8 94.4948 211.49 96.7267 213.587 98.5528C219.065 103.287 227.52 101.123 230.09 94.4948C230.225 94.1566 230.631 93.9537 230.969 94.089C231.307 94.2242 231.51 94.6301 231.375 94.9682C228.467 102.408 218.998 104.978 212.708 99.5673Z" fill="#112544"/>
<path d="M207.297 90.8427C206.891 90.8427 206.621 90.5045 206.689 90.0987C206.756 89.3547 206.891 88.6784 207.23 88.0021C207.365 87.6639 207.771 87.5286 208.109 87.6639C208.447 87.7992 208.582 88.205 208.447 88.5431C208.244 89.0842 208.109 89.6253 208.041 90.1663C207.974 90.5722 207.703 90.8427 207.297 90.8427ZM243.008 42.1461C244.767 46.4747 245.984 58.243 230.158 55.7406C230.158 55.7406 227.452 61.4895 219.404 57.7696C219.404 57.7696 223.732 66.3591 215.819 69.0645C207.974 71.7022 194.853 49.7887 210.07 47.2863C210.07 47.2863 208.988 42.4166 214.399 44.0398C214.399 44.0398 216.157 33.8271 226.303 39.7113C226.303 39.7113 238.003 29.8367 243.008 42.1461Z" fill="#112544"/>
<path d="M241.588 60.8812C241.047 58.8522 240.506 56.8232 239.965 54.9294C242.806 53.4415 243.888 50.8037 244.091 48.166C245.646 50.8037 248.555 57.0937 241.588 60.8812ZM230.564 65.7509C230.767 66.5625 231.375 67.0359 231.984 66.9007C232.593 66.7654 232.863 66.0214 232.661 65.2098C232.458 64.4659 231.849 63.9248 231.24 64.06C230.699 64.2629 230.361 65.0069 230.564 65.7509ZM239.83 64.06C240.033 64.8717 240.641 65.3451 241.25 65.2098C241.859 65.0746 242.129 64.3306 241.926 63.519C241.724 62.775 241.115 62.2339 240.506 62.3692C239.897 62.5721 239.627 63.3161 239.83 64.06ZM227.926 61.6929C227.385 62.031 227.588 62.4368 228.197 62.5045C229.888 62.8426 231.646 62.3692 232.999 61.3547C233.472 61.0165 233.269 60.5431 232.728 60.4078C232.255 60.2725 231.646 60.4078 231.24 60.4754C230.09 60.746 228.941 61.1518 227.926 61.6929Z" fill="#112544"/>
<path d="M237.192 59.4611C236.719 59.7316 236.786 60.1374 237.463 60.2727C239.153 60.6109 240.912 60.1374 242.265 59.1229C242.738 58.7847 242.535 58.3113 241.994 58.176C241.521 58.0408 240.912 58.176 240.506 58.2437C239.424 58.4466 238.274 58.8524 237.192 59.4611Z" fill="#112544"/>
<path d="M235.839 77.3843C235.569 77.1814 235.501 76.7079 235.704 76.4374C235.907 76.1668 236.38 76.0992 236.651 76.3021C238.883 77.993 240.235 76.5726 240.371 76.3697C240.641 76.0992 241.047 76.0316 241.318 76.3021C241.588 76.5726 241.656 76.9785 241.385 77.249C240.235 78.6693 238.003 79.0751 235.839 77.3843Z" fill="#F97A5D"/>
<path d="M233.742 85.0936C233.742 85.0936 227.925 84.0115 222.785 79.5476C222.447 79.2095 221.906 79.6153 222.109 80.0887C223.259 82.8617 226.167 87.9343 232.322 89.6928L233.742 85.0936Z" fill="#E2805D"/>
<path d="M208.447 68.9974C209.327 72.3791 212.303 74.7463 215.008 74.2728C217.781 73.7994 219.269 70.6206 218.39 67.2389C217.51 63.8572 214.535 61.49 211.829 61.9634C209.124 62.3692 207.568 65.548 208.447 68.9974Z" fill="#FCBBA4"/>
<path d="M213.384 69.5379L212.708 68.2529C212.505 67.9147 212.64 67.5089 212.978 67.306C213.316 67.1031 213.722 67.2384 213.925 67.5765L214.601 68.8616C214.804 69.1998 214.669 69.6056 214.331 69.8085C213.993 69.9437 213.587 69.8085 213.384 69.5379ZM236.718 70.823C236.718 70.4172 236.988 70.1466 237.326 70.079C237.394 70.079 238.814 69.9437 238.882 69.8761C239.153 69.1998 237.529 66.6297 235.974 64.8035C235.703 64.533 235.771 64.0596 236.041 63.8567C236.312 63.5861 236.785 63.6538 236.988 63.9243C237.868 65.0065 240.776 68.5911 240.1 70.3496C239.964 70.6201 239.694 71.1612 238.882 71.2964C238.341 71.3641 237.868 71.4317 237.394 71.4993C237.056 71.4993 236.718 71.1612 236.718 70.823Z" fill="#F97A5D"/>
<path d="M271.212 91.7223C270.739 90.2343 271.686 88.6787 273.241 88.4082C292.382 84.9589 307.464 71.1615 311.59 67.0358C312.537 66.0889 314.025 66.0213 315.039 66.9005C325.996 75.8282 339.185 83.1327 354.267 88.5435C355.011 88.814 355.552 89.3551 355.823 90.0314C363.195 109.442 366.915 125.472 367.05 139.201C367.253 155.434 362.586 168.622 352.914 179.376C352.509 179.85 351.9 180.12 351.291 180.188C309.899 185.057 284.063 131.356 271.212 91.7223ZM312.537 67.9827C308.276 72.176 292.99 86.2439 273.444 89.7609C272.7 89.8961 272.227 90.6401 272.497 91.3165C285.145 130.341 310.575 183.569 351.088 178.835C351.562 178.767 351.832 178.497 351.9 178.429C369.485 158.815 370.296 131.694 354.538 90.4372C354.402 90.099 354.132 89.8285 353.794 89.6932C338.576 84.2149 325.252 76.8427 314.16 67.8474C313.687 67.5092 313.01 67.5092 312.537 67.9827Z" fill="#112544"/>
<path d="M156.099 31.4598V150.564C156.099 158.003 150.079 164.09 142.572 164.09H15.1489C7.70915 164.09 1.62207 158.071 1.62207 150.564V31.4598H156.099Z" fill="white"/>
<path d="M155.219 105.114C155.624 102.273 155.895 99.5001 156.098 96.6594V150.564C156.098 158.004 150.078 164.091 142.571 164.091H15.1482C11.6312 164.091 8.38478 162.738 6.01758 160.506C36.7235 156.989 68.2411 165.579 98.8794 160.574C114.909 157.936 130.87 151.173 141.218 138.931C149.267 129.462 153.528 117.288 155.219 105.114Z" fill="#E1E5FF"/>
<path d="M156.099 31.46V20.2328C156.099 12.793 150.079 6.70593 142.572 6.70593H15.1489C7.70915 6.70593 1.62207 12.7254 1.62207 20.2328V31.46H156.099Z" fill="#FFC25E"/>
<path d="M156.098 20.2334V31.4607H1.68945V26.9968H144.601C148.523 26.9968 151.702 23.818 151.702 19.8952V15.7019C151.702 13.1318 150.958 10.697 149.741 8.66797C153.528 11.1028 156.098 15.3638 156.098 20.2334Z" fill="#EFA130"/>
<path d="M142.571 164.767H15.1485C7.30293 164.767 0.945312 158.409 0.945312 150.563V31.4595C0.945312 31.0537 1.21585 30.7832 1.62165 30.7832H156.031C156.436 30.7832 156.707 31.0537 156.707 31.4595V150.563C156.775 158.409 150.417 164.767 142.571 164.767ZM2.36563 32.1359V150.563C2.36563 157.665 8.11454 163.414 15.2161 163.414H142.639C149.741 163.414 155.49 157.665 155.49 150.563V32.1359H2.36563Z" fill="#112544"/>
<path d="M106.455 71.4988C106.455 86.7165 94.1452 99.0259 78.9275 99.0259C63.7098 99.0259 51.4004 86.7165 51.4004 71.4988C51.4004 56.2811 63.7098 43.9717 78.9275 43.9717C94.0776 43.9717 106.455 56.2811 106.455 71.4988Z" fill="#E1E5FF"/>
<path d="M106.455 71.4998C106.455 86.7175 94.1456 99.0269 78.9279 99.0269C71.3528 99.0269 64.4542 95.9834 59.4492 90.9784C63.5749 93.4809 68.4446 94.9012 73.5848 94.9012C88.8025 94.9012 101.112 82.5918 101.112 67.3741C101.112 59.7314 98.0007 52.8327 92.9958 47.8954C101.044 52.6975 106.455 61.4223 106.455 71.4998Z" fill="#CCD2FF"/>
<path d="M121.943 114.65V125.337C121.943 126.892 120.658 128.177 119.102 128.177H38.6854C37.1298 128.177 35.8447 126.892 35.8447 125.337V114.65C35.8447 113.095 37.1298 111.81 38.6854 111.81H119.035C120.658 111.81 121.943 113.095 121.943 114.65Z" fill="#E1E5FF"/>
<path d="M121.943 114.65V125.337C121.943 126.96 120.658 128.177 119.102 128.177H38.6854C37.1298 128.177 35.8447 126.892 35.8447 125.337C35.98 125.337 36.0476 125.337 36.1829 125.337H116.532C118.088 125.337 119.373 124.052 119.373 122.496V111.81C120.861 112.013 121.943 113.23 121.943 114.65Z" fill="#CCD2FF"/>
<path d="M156.098 32.1361H1.68904C1.28323 32.1361 1.0127 31.8656 1.0127 31.4598V20.2325C1.0127 12.3869 7.37031 6.0293 15.2159 6.0293H142.639C150.484 6.0293 156.842 12.3869 156.842 20.2325V31.4598C156.774 31.7979 156.504 32.1361 156.098 32.1361ZM2.36538 30.7834H155.422V20.2325C155.422 13.1309 149.673 7.38198 142.571 7.38198H15.1482C8.04666 7.38198 2.29775 13.1309 2.29775 20.2325V30.7834H2.36538Z" fill="#112544"/>
<path d="M14.5394 23.4794C16.3324 23.4794 17.7859 22.0259 17.7859 20.233C17.7859 18.44 16.3324 16.9865 14.5394 16.9865C12.7465 16.9865 11.293 18.44 11.293 20.233C11.293 22.0259 12.7465 23.4794 14.5394 23.4794Z" fill="white"/>
<path d="M26.4437 23.4794C28.2367 23.4794 29.6902 22.0259 29.6902 20.233C29.6902 18.44 28.2367 16.9865 26.4437 16.9865C24.6507 16.9865 23.1973 18.44 23.1973 20.233C23.1973 22.0259 24.6507 23.4794 26.4437 23.4794Z" fill="white"/>
<path d="M38.347 23.4794C40.14 23.4794 41.5935 22.0259 41.5935 20.233C41.5935 18.44 40.14 16.9865 38.347 16.9865C36.5541 16.9865 35.1006 18.44 35.1006 20.233C35.1006 22.0259 36.5541 23.4794 38.347 23.4794Z" fill="white"/>
<path d="M17.7858 20.2328C17.7858 22.0589 16.2979 23.4793 14.5394 23.4793C13.1867 23.4793 12.0369 22.6676 11.5635 21.5179C14.2012 22.6676 16.9742 19.8946 15.8244 17.1893C16.9742 17.7303 17.7858 18.8801 17.7858 20.2328ZM29.6895 20.2328C29.6895 22.0589 28.2015 23.4793 26.443 23.4793C25.0903 23.4793 23.9405 22.6676 23.4671 21.5179C26.2401 22.6676 28.8778 19.827 27.7281 17.1893C28.8778 17.7303 29.6895 18.8801 29.6895 20.2328ZM41.5931 20.2328C41.5931 22.0589 40.1051 23.4793 38.3466 23.4793C36.9939 23.4793 35.8442 22.6676 35.3707 21.5179C38.0085 22.6676 40.8491 19.8946 39.6317 17.1893C40.7815 17.7303 41.5931 18.8801 41.5931 20.2328Z" fill="#E1E5FF"/>
<path d="M14.54 24.2235C12.3757 24.2235 10.6172 22.465 10.6172 20.3007C10.6172 18.1364 12.3757 16.3779 14.54 16.3779C16.7043 16.3779 18.4628 18.1364 18.4628 20.3007C18.4628 22.465 16.7043 24.2235 14.54 24.2235ZM14.54 17.663C13.1197 17.663 11.9699 18.8128 11.9699 20.2331C11.9699 21.6534 13.1197 22.8032 14.54 22.8032C15.9603 22.8032 17.1101 21.6534 17.1101 20.2331C17.1101 18.8128 15.9603 17.663 14.54 17.663ZM26.4436 24.2235C24.2793 24.2235 22.5208 22.465 22.5208 20.3007C22.5208 18.1364 24.2793 16.3779 26.4436 16.3779C28.6079 16.3779 30.3664 18.1364 30.3664 20.3007C30.3664 22.465 28.6079 24.2235 26.4436 24.2235ZM26.4436 17.663C25.0233 17.663 23.8735 18.8128 23.8735 20.2331C23.8735 21.6534 25.0233 22.8032 26.4436 22.8032C27.8639 22.8032 29.0137 21.6534 29.0137 20.2331C29.0137 18.8128 27.8639 17.663 26.4436 17.663ZM38.3472 24.2235C36.1829 24.2235 34.4244 22.465 34.4244 20.3007C34.4244 18.1364 36.1829 16.3779 38.3472 16.3779C40.5115 16.3779 42.27 18.1364 42.27 20.3007C42.27 22.465 40.5115 24.2235 38.3472 24.2235ZM38.3472 17.663C36.9269 17.663 35.7771 18.8128 35.7771 20.2331C35.7771 21.6534 36.9269 22.8032 38.3472 22.8032C39.7675 22.8032 40.9173 21.6534 40.9173 20.2331C40.9173 18.8128 39.7675 17.663 38.3472 17.663Z" fill="#112544"/>
<path d="M97.9326 141.163V151.849C97.9326 153.405 96.6475 154.69 95.0919 154.69H62.6951C61.1396 154.69 59.8545 153.405 59.8545 151.849V141.163C59.8545 139.607 61.1396 138.322 62.6951 138.322H95.0919C96.6475 138.322 97.9326 139.607 97.9326 141.163Z" fill="#FC6054"/>
<path d="M97.9326 141.163V151.849C97.9326 153.472 96.6475 154.69 95.0919 154.69H62.6951C61.1396 154.69 59.8545 153.405 59.8545 151.849H92.2513C93.8069 151.849 95.0919 150.564 95.0919 149.008V138.322C96.7151 138.322 97.9326 139.607 97.9326 141.163Z" fill="#E64B38"/>
<path d="M119.034 128.921H38.685C36.7236 128.921 35.168 127.298 35.168 125.404V114.718C35.168 112.757 36.7912 111.201 38.685 111.201H119.034C120.996 111.201 122.551 112.824 122.551 114.718V125.404C122.619 127.298 120.996 128.921 119.034 128.921ZM38.685 112.486C37.4675 112.486 36.5207 113.501 36.5207 114.651V125.337C36.5207 126.554 37.5352 127.501 38.685 127.501H119.034C120.252 127.501 121.199 126.486 121.199 125.337V114.651C121.199 113.433 120.184 112.486 119.034 112.486H38.685Z" fill="#112544"/>
<path d="M49.1686 119.993C49.1686 121.549 47.8835 122.834 46.3279 122.834C44.7724 122.834 43.4873 121.549 43.4873 119.993C43.4873 118.438 44.7724 117.152 46.3279 117.152C47.8835 117.152 49.1686 118.438 49.1686 119.993Z" fill="white"/>
<path d="M46.3275 123.511C44.3661 123.511 42.8105 121.955 42.8105 119.994C42.8105 118.032 44.3661 116.477 46.3275 116.477C48.2889 116.477 49.8445 118.032 49.8445 119.994C49.8445 121.955 48.2889 123.511 46.3275 123.511ZM46.3275 117.829C45.1101 117.829 44.1632 118.776 44.1632 119.994C44.1632 121.211 45.1101 122.158 46.3275 122.158C47.5449 122.158 48.4918 121.211 48.4918 119.994C48.4918 118.776 47.5449 117.829 46.3275 117.829Z" fill="#112544"/>
<path d="M60.0572 119.993C60.0572 121.549 58.7722 122.834 57.2166 122.834C55.661 122.834 54.376 121.549 54.376 119.993C54.376 118.438 55.661 117.152 57.2166 117.152C58.7722 117.152 60.0572 118.438 60.0572 119.993Z" fill="white"/>
<path d="M57.1498 123.511C55.1884 123.511 53.6328 121.955 53.6328 119.994C53.6328 118.032 55.1884 116.477 57.1498 116.477C59.1112 116.477 60.6668 118.032 60.6668 119.994C60.7344 121.955 59.1112 123.511 57.1498 123.511ZM57.1498 117.829C55.9324 117.829 54.9855 118.776 54.9855 119.994C54.9855 121.211 55.9324 122.158 57.1498 122.158C58.3672 122.158 59.3141 121.211 59.3141 119.994C59.3817 118.776 58.3672 117.829 57.1498 117.829Z" fill="#112544"/>
<path d="M70.8795 119.993C70.8795 121.549 69.5945 122.834 68.0389 122.834C66.4833 122.834 65.1982 121.549 65.1982 119.993C65.1982 118.438 66.4833 117.152 68.0389 117.152C69.5945 117.152 70.8795 118.438 70.8795 119.993Z" fill="white"/>
<path d="M68.0385 123.511C66.0771 123.511 64.5215 121.955 64.5215 119.994C64.5215 118.032 66.0771 116.477 68.0385 116.477C69.9999 116.477 71.5554 118.032 71.5554 119.994C71.5554 121.955 69.9999 123.511 68.0385 123.511ZM68.0385 117.829C66.821 117.829 65.8742 118.776 65.8742 119.994C65.8742 121.211 66.821 122.158 68.0385 122.158C69.2559 122.158 70.2028 121.211 70.2028 119.994C70.2028 118.776 69.2559 117.829 68.0385 117.829Z" fill="#112544"/>
<path d="M81.7008 119.993C81.7008 121.549 80.4158 122.834 78.8602 122.834C77.3046 122.834 76.0195 121.549 76.0195 119.993C76.0195 118.438 77.3046 117.152 78.8602 117.152C80.4834 117.152 81.7008 118.438 81.7008 119.993Z" fill="white"/>
<path d="M78.8598 123.511C76.8984 123.511 75.3428 121.955 75.3428 119.994C75.3428 118.032 76.8984 116.477 78.8598 116.477C80.8211 116.477 82.3767 118.032 82.3767 119.994C82.3767 121.955 80.8211 123.511 78.8598 123.511ZM78.8598 117.829C77.6423 117.829 76.6955 118.776 76.6955 119.994C76.6955 121.211 77.6423 122.158 78.8598 122.158C80.0772 122.158 81.024 121.211 81.024 119.994C81.024 118.776 80.0772 117.829 78.8598 117.829Z" fill="#112544"/>
<path d="M92.5895 119.993C92.5895 121.549 91.3044 122.834 89.7488 122.834C88.1933 122.834 86.9082 121.549 86.9082 119.993C86.9082 118.438 88.1933 117.152 89.7488 117.152C91.3044 117.152 92.5895 118.438 92.5895 119.993Z" fill="white"/>
<path d="M89.7494 123.511C87.788 123.511 86.2324 121.955 86.2324 119.994C86.2324 118.032 87.788 116.477 89.7494 116.477C91.7108 116.477 93.2664 118.032 93.2664 119.994C93.2664 121.955 91.7108 123.511 89.7494 123.511ZM89.7494 117.829C88.532 117.829 87.5851 118.776 87.5851 119.994C87.5851 121.211 88.532 122.158 89.7494 122.158C90.9668 122.158 91.9137 121.211 91.9137 119.994C91.9137 118.776 90.9668 117.829 89.7494 117.829Z" fill="#112544"/>
<path d="M103.411 119.993C103.411 121.549 102.126 122.834 100.57 122.834C99.0146 122.834 97.7295 121.549 97.7295 119.993C97.7295 118.438 99.0146 117.152 100.57 117.152C102.193 117.152 103.411 118.438 103.411 119.993Z" fill="white"/>
<path d="M100.571 123.511C98.6093 123.511 97.0537 121.955 97.0537 119.994C97.0537 118.032 98.6093 116.477 100.571 116.477C102.532 116.477 104.088 118.032 104.088 119.994C104.088 121.955 102.532 123.511 100.571 123.511ZM100.571 117.829C99.3533 117.829 98.4064 118.776 98.4064 119.994C98.4064 121.211 99.3533 122.158 100.571 122.158C101.788 122.158 102.735 121.211 102.735 119.994C102.735 118.776 101.788 117.829 100.571 117.829Z" fill="#112544"/>
<path d="M114.3 119.993C114.3 121.549 113.015 122.834 111.46 122.834C109.904 122.834 108.619 121.549 108.619 119.993C108.619 118.437 109.904 117.152 111.46 117.152C113.015 117.152 114.3 118.437 114.3 119.993Z" fill="white"/>
<path d="M111.459 123.51C109.498 123.51 107.942 121.954 107.942 119.993C107.942 118.031 109.498 116.476 111.459 116.476C113.421 116.476 114.976 118.031 114.976 119.993C114.976 121.954 113.421 123.51 111.459 123.51ZM111.459 117.828C110.242 117.828 109.295 118.775 109.295 119.993C109.295 121.21 110.242 122.157 111.459 122.157C112.677 122.157 113.624 121.21 113.624 119.993C113.624 118.775 112.609 117.828 111.459 117.828Z" fill="#112544"/>
<path d="M95.0925 155.433H62.6957C60.7343 155.433 59.1787 153.81 59.1787 151.916V141.23C59.1787 139.269 60.8019 137.713 62.6957 137.713H95.0925C97.0539 137.713 98.6095 139.336 98.6095 141.23V151.916C98.6095 153.81 97.0539 155.433 95.0925 155.433ZM62.6957 138.998C61.4783 138.998 60.5314 140.013 60.5314 141.162V151.849C60.5314 153.066 61.5459 154.013 62.6957 154.013H95.0925C96.3099 154.013 97.2568 152.998 97.2568 151.849V141.162C97.2568 139.945 96.2423 138.998 95.0925 138.998H62.6957Z" fill="#112544"/>
<path d="M96.9185 92.3304C84.3385 103.287 64.9275 100.582 55.7969 86.5139C59.9902 85.2964 64.5893 84.823 69.7295 85.1612C69.8648 85.1612 70.0001 85.1612 70.0677 85.1612C76.6282 85.4317 82.1742 86.6491 86.7734 88.2047C90.7638 89.1516 94.0779 90.5719 96.9185 92.3304Z" fill="#8D95FF"/>
<path d="M86.6378 65.6153C86.5702 65.5477 86.6378 65.4124 86.7055 65.3448L86.7731 65.2772C86.8407 65.2095 86.976 65.2772 87.0436 65.3448C87.1113 65.4124 87.1113 65.4801 87.1113 65.4801C87.0436 65.683 86.7055 65.8182 86.6378 65.6153ZM83.1208 66.3593C82.9179 66.3593 82.7827 66.3593 82.5798 66.3593C82.4445 66.3593 82.3769 66.224 82.4445 66.0888C82.5121 66.0211 82.5798 65.9535 82.6474 65.9535C82.8503 65.9535 82.9856 65.9535 83.1885 65.9535C83.3914 66.0211 83.3914 66.3593 83.1208 66.3593Z" fill="#FF987A"/>
<path d="M83.459 66.4264C83.2561 66.4264 83.1885 66.4264 83.1209 66.4264C82.9856 66.4264 82.918 66.3588 82.918 66.2235C82.918 66.0883 82.9856 66.0206 83.1209 66.0206C83.3914 66.0206 83.7296 66.0206 84.0001 66.0206C84.2707 66.0206 84.2707 66.4264 84.0001 66.4264C83.7972 66.3588 83.6619 66.4264 83.459 66.4264Z" fill="#FF987A"/>
<path d="M84.1355 66.3593C83.865 66.3593 83.865 65.9535 84.1355 65.9535C84.2708 65.9535 84.4061 65.9535 84.609 65.8859C84.7442 65.8859 84.8119 65.9535 84.8119 66.0888C84.8119 66.224 84.7442 66.2917 84.609 66.2917C84.4061 66.3593 84.2708 66.3593 84.1355 66.3593Z" fill="#FF987A"/>
<path d="M70.4056 87.2583C71.2172 88.3404 72.367 89.6931 73.7873 90.8429C77.913 94.0893 84.0001 92.1279 85.3528 87.0554L86.976 81.1712C86.976 81.1712 91.9133 82.1181 93.3336 77.3837C93.7394 76.031 93.5365 73.7314 92.9954 71.1613C92.7925 70.2145 92.5896 69.1323 92.3191 68.1178C91.7104 65.7506 90.9664 63.3158 90.2224 61.1515C88.8698 61.8955 86.8407 62.3013 83.8648 61.9631C83.8648 61.9631 82.2416 65.8183 76.8309 63.5863C76.8309 63.5863 79.8744 69.1323 74.8018 71.0937C73.9226 71.4319 72.8405 71.2966 71.8259 70.7555C72.1641 72.3111 72.7728 72.9198 73.9226 74.0696L69.9998 83.9442C69.5264 85.0264 69.6616 86.3114 70.4056 87.2583Z" fill="#FCBBA4"/>
<path d="M73.3818 91.4513C72.1644 90.4368 70.9469 89.2194 69.8648 87.7314C69.3237 86.9874 69.0532 86.1082 69.0532 85.229C69.0532 84.8232 69.3914 84.5526 69.7295 84.5526C70.1353 84.5526 70.4059 84.8908 70.4059 85.229C70.4059 85.8377 70.6088 86.4464 70.947 86.9198C71.6233 87.8667 72.7731 89.287 74.261 90.4368C77.8456 93.2774 83.0535 91.7218 84.6091 87.5962C84.7443 87.258 85.1501 87.0551 85.4883 87.1903C85.8265 87.3256 86.0294 87.7314 85.8941 88.0696C84.0004 92.9393 77.7104 94.833 73.3818 91.4513ZM91.9812 52.6293C93.2662 55.4023 94.3484 63.1802 83.8651 61.8952C83.8651 61.8952 82.2419 65.7503 76.8311 63.5184C76.8311 63.5184 79.8747 69.0644 74.8021 71.0258C69.7295 72.9872 60.4636 58.9193 70.4059 56.8226C70.4059 56.8226 69.5943 53.6438 73.1789 54.5907C73.1789 54.5907 74.0581 47.8273 80.8892 51.4119C80.8892 51.4795 88.3289 44.6484 91.9812 52.6293Z" fill="#112544"/>
<path d="M91.5075 65.0061C91.1017 63.6534 90.6959 62.3684 90.2901 61.1509C92.1162 60.1364 92.7925 58.3103 92.7925 56.5518C93.9423 58.2427 96.039 62.3684 91.5075 65.0061ZM84.4059 68.5231C84.5412 69.0641 85.0146 69.3347 85.3528 69.267C85.7586 69.1318 85.8939 68.6583 85.7586 68.1173C85.6233 67.6438 85.1499 67.3057 84.8117 67.3733C84.4059 67.5086 84.2706 67.982 84.4059 68.5231ZM90.4254 67.1704C90.5606 67.7115 91.0341 67.982 91.3722 67.9144C91.778 67.7791 91.9133 67.3057 91.778 66.7646C91.6428 66.2911 91.1693 65.953 90.8311 66.0206C90.4253 66.1559 90.2901 66.6293 90.4254 67.1704ZM82.5121 65.8853C82.174 66.0882 82.2416 66.3588 82.715 66.4264C83.7972 66.5617 85.0146 66.2911 85.8262 65.5472C86.0968 65.2766 85.9615 65.0061 85.6233 64.9385C85.3528 64.8708 84.947 65.0061 84.6764 65.0061C83.9325 65.209 83.1885 65.4795 82.5121 65.8853Z" fill="#112544"/>
<path d="M88.5991 64.1946C88.2609 64.3975 88.3285 64.668 88.802 64.7356C89.8841 64.8709 91.1015 64.6004 91.9131 63.8564C92.1837 63.5859 92.0484 63.3153 91.7102 63.2477C91.4397 63.1801 91.0339 63.3153 90.7634 63.3153C90.0194 63.4506 89.2754 63.7888 88.5991 64.1946Z" fill="#112544"/>
<path d="M87.9905 76.234C87.6523 76.0311 87.5847 75.6253 87.8552 75.2871C88.0581 74.949 88.4639 74.8813 88.8021 75.1519C90.1548 76.0987 90.8311 75.2871 90.8988 75.1519C91.1017 74.8813 91.5751 74.8137 91.8456 75.0166C92.1162 75.2195 92.1838 75.6929 91.9809 75.9635C91.1693 76.978 89.6137 77.3162 87.9905 76.234ZM86.976 81.1713C86.976 81.1713 83.1208 80.6302 79.6039 77.7896C79.3333 77.5867 78.9951 77.8572 79.1304 78.1278C79.942 79.8863 81.971 83.2003 86.0967 84.1472L86.976 81.1713Z" fill="#E2805D"/>
<path d="M69.9322 71.229C70.6086 73.4609 72.57 74.9489 74.3961 74.5431C76.2222 74.1373 77.1014 72.0406 76.4251 69.8087C75.7488 67.5768 73.7874 66.0888 71.9613 66.4946C70.2028 66.8328 69.2559 68.9971 69.9322 71.229Z" fill="#FCBBA4"/>
<path d="M72.9764 71.5669L72.503 70.7553C72.3001 70.4171 72.4353 70.0113 72.7059 69.8084C73.044 69.6055 73.4498 69.7408 73.6527 70.0113L74.1262 70.8229C74.3291 71.1611 74.1938 71.5669 73.9233 71.7698C73.5851 71.9727 73.1793 71.8374 72.9764 71.5669ZM88.3294 71.7022C88.2617 71.364 88.5323 71.0258 88.9381 70.9582C89.2086 70.9582 89.4792 70.8905 89.7497 70.8229C89.6821 70.2818 88.8028 68.9968 87.7883 67.847C87.5178 67.5765 87.5854 67.1707 87.8559 66.9001C88.1265 66.6296 88.5323 66.6972 88.8028 66.9678C89.6144 67.847 91.5082 70.0789 91.1024 71.364C91.0347 71.6345 90.7642 72.0403 90.1555 72.1756C89.8173 72.2432 89.4792 72.3109 89.141 72.3109C88.7352 72.3109 88.397 72.108 88.3294 71.7022Z" fill="#E2805D"/>
<path d="M78.8597 99.7027C63.3038 99.7027 50.6562 87.0551 50.6562 71.4992C50.6562 55.9434 63.3038 43.2958 78.8597 43.2958C94.4156 43.2958 107.063 55.9434 107.063 71.4992C107.131 87.0551 94.4156 99.7027 78.8597 99.7027ZM78.8597 44.6485C64.0478 44.6485 52.0089 56.6873 52.0089 71.4992C52.0089 86.3111 64.0478 98.35 78.8597 98.35C93.6716 98.35 105.711 86.3111 105.711 71.4992C105.778 56.6873 93.6716 44.6485 78.8597 44.6485Z" fill="#112544"/>
<path d="M217.307 191.888C208.244 186.004 198.032 179.376 187.21 183.434C181.799 185.463 176.794 186.275 172.263 185.801C171.925 185.734 171.587 185.463 171.654 185.057C171.722 184.719 171.992 184.449 172.398 184.449C176.659 184.855 181.461 184.111 186.737 182.149C198.234 177.821 208.785 184.652 218.051 190.739C225.221 195.405 231.375 199.396 236.245 197.096C241.656 194.526 248.487 169.028 254.912 127.23C254.98 126.892 255.318 126.622 255.656 126.689C255.994 126.757 256.265 127.095 256.197 127.433C251.53 157.801 244.361 194.661 236.786 198.314C230.834 201.154 223.394 195.811 217.307 191.888Z" fill="#112544"/>
<path d="M184.369 111.066C187.48 137.511 168.475 149.279 168.475 149.279C173.277 158.883 172.804 178.97 171.857 192.565C171.248 200.546 170.504 206.227 170.504 206.227C161.509 202.439 154.137 203.589 147.982 208.797C140.677 187.628 138.581 168.487 138.986 154.013C139.257 144.612 140.677 137.24 142.436 132.506C150.687 110.66 170.707 86.1087 206.012 90.0314L184.369 111.066Z" fill="#66D3D8"/>
<path d="M171.857 192.632C171.248 200.613 170.504 206.294 170.504 206.294C161.509 202.507 154.137 203.656 147.982 208.864C140.677 187.695 138.581 168.554 138.986 154.081C139.46 154.013 139.933 154.013 140.407 154.148C142.639 154.757 143.45 157.327 143.924 159.559C145.75 168.757 146.494 178.091 146.156 187.424C146.088 189.656 145.953 192.023 146.764 194.12C147.576 196.217 149.605 198.043 151.837 197.84C155.422 197.434 156.707 192.7 159.75 190.806C161.847 189.521 164.552 189.724 166.919 190.535C168.61 191.077 170.166 191.888 171.857 192.632Z" fill="#47B6C3"/>
<path d="M147.982 209.541C147.779 209.541 147.576 209.474 147.441 209.271C147.17 209 147.238 208.527 147.508 208.324C153.866 202.913 161.373 201.966 169.963 205.28C170.707 199.193 174.697 163.212 167.866 149.55C167.731 149.211 167.799 148.873 168.137 148.67C168.34 148.535 186.736 136.767 183.693 111.133C183.625 110.795 183.896 110.457 184.301 110.389C184.707 110.322 184.978 110.592 185.045 110.998C187.886 135.076 172.398 147.385 169.354 149.55C176.591 165.173 171.383 204.671 171.18 206.43C171.18 206.633 171.045 206.836 170.842 206.903C170.639 207.039 170.436 207.039 170.234 206.971C161.779 203.386 154.61 204.198 148.388 209.406C148.252 209.474 148.117 209.541 147.982 209.541Z" fill="#112544"/>
<path d="M351.629 118.709C354.808 132.371 346.218 143.463 332.556 143.463C324.778 143.463 317 139.878 311.184 134.265C316.527 138.255 322.884 140.69 329.31 140.69C342.972 140.69 351.494 129.598 348.382 115.936C347.03 110.052 343.716 104.641 339.319 100.38C345.339 104.911 349.938 111.404 351.629 118.709Z" fill="#E1E5FF"/>
<path d="M332.556 144.139C318.623 144.139 304.691 132.777 301.444 118.844C298.198 104.641 307.126 93.2783 321.194 93.2783C335.126 93.2783 349.126 104.641 352.305 118.573C355.552 132.777 346.624 144.139 332.556 144.139ZM321.194 94.631C308.005 94.631 299.753 105.25 302.797 118.573C305.841 131.965 319.232 142.787 332.556 142.787C345.745 142.787 354.064 132.236 350.953 118.844C347.909 105.452 334.517 94.631 321.194 94.631Z" fill="#112544"/>
<path d="M343.581 118.709C345.677 127.907 339.928 135.414 330.73 135.414C321.532 135.414 312.334 127.974 310.237 118.709C308.14 109.51 313.889 102.003 323.088 102.003C332.286 102.003 341.416 109.443 343.581 118.709Z" fill="#66D3D8"/>
<path d="M343.581 118.709C345.677 127.907 339.928 135.414 330.73 135.414C324.508 135.414 318.285 132.033 314.295 126.96C330.257 142.787 352.102 126.622 337.764 108.496C340.537 111.269 342.701 114.854 343.581 118.709Z" fill="#47B6C3"/>
<path d="M323.358 122.564L319.841 118.303C319.029 117.356 319.097 116.139 319.908 115.598C320.72 115.057 322.005 115.327 322.817 116.274L324.846 118.709L330.121 114.313C330.865 113.704 332.15 113.907 332.962 114.786C333.773 115.665 333.841 116.883 333.097 117.559L326.401 123.24C325.522 123.849 324.102 123.443 323.358 122.564Z" fill="white"/>
<path d="M294.883 43.8369L280.342 25.1698C280.139 24.8993 280.139 24.4259 280.477 24.2229C280.748 24.02 281.221 24.0201 281.424 24.3582L295.965 43.0253C296.168 43.2958 296.168 43.7692 295.83 43.9721C295.56 44.175 295.154 44.1074 294.883 43.8369ZM303.811 55.267L300.226 50.6679C300.024 50.3974 300.024 49.9239 300.362 49.721C300.632 49.5181 301.106 49.5181 301.309 49.8563L304.893 54.4554C305.096 54.726 305.096 55.1994 304.758 55.4023C304.487 55.6052 304.014 55.5376 303.811 55.267ZM269.453 60.813L267.356 60.3396C267.018 60.272 266.747 59.8662 266.815 59.528C266.883 59.1898 267.289 58.9193 267.627 59.0545L269.723 59.528C270.062 59.5956 270.332 60.0014 270.264 60.3396C270.197 60.6778 269.791 60.9483 269.453 60.813ZM296.777 67.1707L275.337 62.1657C274.999 62.0981 274.728 61.6923 274.864 61.3541C274.931 61.0159 275.337 60.7454 275.675 60.8807L297.115 65.818C297.453 65.8856 297.724 66.2914 297.589 66.6296C297.521 67.0354 297.115 67.2383 296.777 67.1707ZM317.947 28.0781C317.608 28.0105 317.338 27.6723 317.338 27.3341L317.744 24.2906C317.811 23.9524 318.149 23.6819 318.488 23.6819C318.826 23.7495 319.096 24.0877 319.096 24.4259L318.691 27.4694C318.691 27.8752 318.352 28.1457 317.947 28.0781ZM314.7 53.3733C314.362 53.3056 314.091 52.9675 314.091 52.6293L316.188 36.2618C316.256 35.9237 316.594 35.6531 316.932 35.6531C317.27 35.7208 317.541 36.0589 317.541 36.3971L315.444 52.7646C315.376 53.1704 315.038 53.4409 314.7 53.3733Z" fill="#CCD2FF"/>
<path d="M67.9717 250.391C67.9717 256.816 71.421 262.092 70.6771 268.652C70.0007 274.739 65.334 281.232 59.3145 284.478C51.9424 288.401 43.8263 286.846 39.1595 282.585C38.889 282.314 38.5508 282.044 38.2803 281.773C49.9134 286.71 64.5224 276.768 67.1601 265.609C68.648 259.319 65.8074 254.178 66.5514 247.956C67.363 240.854 72.8414 233.347 77.0347 227.733C75.8849 229.627 67.9717 242.545 67.9717 250.391Z" fill="#E1E5FF"/>
<path d="M38.6856 283.058C35.9803 280.556 32.5986 278.324 32.0575 274.131C31.4488 269.87 33.6807 264.797 37.4682 261.416C41.9321 257.56 48.2221 255.937 50.8598 251.203C52.8888 247.618 51.9419 244.236 51.198 233.55C49.9806 218.603 50.8598 202.709 65.1982 194.525C74.4641 189.25 83.6624 192.361 86.2325 199.666C89.4789 208.796 82.445 220.159 77.7106 227.801C73.6525 234.362 68.58 242.546 68.58 250.256C68.58 256.546 72.0293 261.889 71.2853 268.585C70.5414 274.875 65.7393 281.638 59.5846 284.885C52.2801 289.01 43.7582 287.658 38.6856 283.058ZM65.8746 195.81C52.1448 203.656 51.3332 218.941 52.5507 233.55C53.4299 244.507 54.2415 248.159 52.0772 251.947C49.2366 257.087 42.676 258.778 38.4151 262.498C34.9657 265.474 32.9367 270.208 33.4102 273.996C33.8836 277.58 37.0624 279.744 39.6325 282.112C43.6906 285.832 51.4685 287.928 58.9759 283.87C64.7924 280.759 69.2563 274.469 69.9326 268.585C70.6766 262.227 67.2273 256.884 67.2273 250.391C67.2273 242.343 72.3675 234.024 76.5608 227.26C80.957 220.091 87.991 208.931 84.9474 200.274C82.3773 192.699 73.3144 191.549 65.8746 195.81Z" fill="#CCD2FF"/>
<path d="M43.4879 314.238C43.2173 314.238 43.0145 314.102 42.8792 313.899C42.7439 313.696 31.1785 291.986 50.9953 261.956C68.7155 235.173 67.1599 212.651 67.1599 212.448C67.1599 212.042 67.4304 211.772 67.7686 211.704C68.1744 211.704 68.4449 211.975 68.5126 212.313C68.5126 212.516 70.1358 235.511 52.1451 262.7C32.734 292.053 43.9613 313.02 44.0966 313.223C44.2995 313.696 44.029 314.238 43.4879 314.238Z" fill="#CCD2FF"/>
<path d="M42.2706 272.981C39.6329 271.763 35.6425 272.845 34.0192 270.275C33.14 268.787 33.2753 266.555 33.5458 264.391C34.6279 254.246 35.5072 247.956 34.425 242.545C30.5699 223.675 7.03318 239.028 15.014 256.14C16.502 259.319 18.7339 261.889 20.56 264.797C22.3862 267.705 23.8741 271.155 23.7388 275.213C23.5359 279.879 21.2364 285.02 21.5069 289.551C21.7774 293.744 24.5504 296.856 28.2027 297.058C32.7342 297.329 37.8744 293.203 40.9179 288.401C42.6088 285.764 44.7731 282.923 45.1789 279.879C45.6523 276.836 44.5025 273.995 42.2706 272.981Z" fill="#CCD2FF"/>
<path d="M28.2025 297.465C24.3473 297.262 21.5067 294.015 21.1685 289.619C20.898 285.02 23.1975 279.88 23.4004 275.213C23.5357 271.831 22.5212 268.585 20.2893 265C18.4631 262.092 16.2989 259.522 14.7433 256.276C13.4582 253.57 12.3084 249.377 13.6611 244.575C17.1105 232.671 31.7871 228.275 34.763 242.478C35.9128 247.957 34.9659 254.247 33.8838 264.392C33.6808 266.15 33.4779 268.585 34.3572 270.005C35.2364 271.493 37.0626 271.696 38.8887 271.899C40.1061 272.034 41.3235 272.17 42.4057 272.643C44.7729 273.725 46.0579 276.701 45.5168 280.015C45.0434 283.194 42.8791 286.035 41.1882 288.672C38.4829 293.001 33.2074 297.735 28.2025 297.465ZM19.41 237C17.1105 238.961 15.2167 241.87 14.3375 244.778C12.9848 249.377 14.1346 253.435 15.352 256.005C16.8399 259.184 19.0042 261.754 20.8303 264.662C23.1299 268.382 24.1444 271.764 24.0092 275.281C23.8062 279.88 21.5067 285.223 21.7772 289.619C22.0478 293.677 24.6855 296.653 28.1348 296.788C32.8016 297.059 37.8742 292.595 40.5795 288.334C42.2704 285.696 44.3671 282.923 44.8405 279.948C45.2463 276.972 44.1642 274.266 42.0675 273.319C41.1206 272.846 39.9032 272.778 38.7534 272.643C36.792 272.44 34.763 272.237 33.6808 270.479C32.734 268.923 32.8692 266.827 33.1398 264.392C34.1543 254.517 35.1688 248.092 34.019 242.681C32.3282 234.092 25.4971 231.86 19.41 237Z" fill="#CCD2FF"/>
<path d="M39.2943 296.314C39.0238 289.416 36.9948 283.464 33.1396 278.527C22.521 264.932 24.1443 247.415 24.2119 247.28C24.2795 246.941 24.6177 246.671 24.9559 246.671C25.294 246.739 25.5646 247.009 25.5646 247.415C25.5646 247.618 23.9414 264.594 34.2218 277.715C38.2122 282.855 40.3765 289.078 40.647 296.314C40.647 296.72 40.3765 296.991 39.9707 296.991C39.6325 296.991 39.2943 296.72 39.2943 296.314ZM52.2801 314.237H36.5213C36.1155 314.237 35.845 313.967 35.845 313.561C35.845 313.155 36.1155 312.885 36.5213 312.885H52.2801C52.6859 312.885 52.9564 313.155 52.9564 313.561C52.9564 313.967 52.6183 314.237 52.2801 314.237Z" fill="#CCD2FF"/>
<path d="M199.722 20.7738H193.973C193.567 20.7738 193.297 20.5033 193.297 20.0975C193.297 19.6917 193.567 19.4211 193.973 19.4211H198.843C196.679 10.2905 200.534 4.94741 208.312 9.14073C207.635 -5.26535 223.732 -1.13966 234.216 11.1021C234.757 8.53202 236.989 8.73493 239.423 9.74944H244.969C245.375 9.74944 245.646 10.02 245.646 10.4258C245.646 10.8316 245.375 11.1021 244.969 11.1021H239.288C238.138 11.1021 235.298 8.59966 235.501 12.8606C235.501 13.537 234.689 13.8075 234.283 13.3341C224.747 1.29517 208.109 -4.79191 209.8 10.3581C209.867 10.8992 209.259 11.305 208.785 11.0345C201.007 6.09719 198.031 11.1698 200.398 20.0298C200.466 20.368 200.128 20.7738 199.722 20.7738Z" fill="#CCD2FF"/>
</svg>
