<svg width="120" height="120" viewBox="0 0 120 120" fill="none" xmlns="http://www.w3.org/2000/svg">
<g id="Frame">
<g clip-path="url(#clip0_243_164803)">
<rect width="120" height="120" rx="12" fill="#06C755"/>
<g id="Group 1000002802">
<path id="Vector" d="M101.481 54.1866C101.481 35.7777 83.0257 20.8008 60.3405 20.8008C37.6553 20.8008 19.2002 35.7777 19.2002 54.1866C19.2002 70.6905 33.8532 84.5145 53.604 87.1251C54.9459 87.4143 56.7698 88.0081 57.2287 89.1534C57.6451 90.1945 57.5025 91.8256 57.3636 92.8745C57.3636 92.8745 56.8816 95.7781 56.7775 96.395C56.5963 97.4362 55.9485 100.463 60.3405 98.6161C64.7326 96.7691 84.0322 84.6649 92.662 74.7278C98.6235 68.1918 101.481 61.5439 101.481 54.1866Z" fill="white"/>
<path id="Vector_2" d="M88.0344 62.6213H76.4354C76.2303 62.6213 76.0336 62.5563 75.8886 62.4406C75.7436 62.3249 75.6621 62.1679 75.6621 62.0043V47.6443C75.6621 47.4807 75.7436 47.3238 75.8886 47.208C76.0336 47.0923 76.2303 47.0273 76.4354 47.0273H88.0344C88.2395 47.0273 88.4362 47.0923 88.5812 47.208C88.7262 47.3238 88.8077 47.4807 88.8077 47.6443V49.9795C88.8077 50.1432 88.7262 50.3001 88.5812 50.4158C88.4362 50.5315 88.2395 50.5965 88.0344 50.5965H80.1587V53.0181H88.0344C88.2395 53.0181 88.4362 53.0831 88.5812 53.1988C88.7262 53.3145 88.8077 53.4715 88.8077 53.6351V55.9919C88.8077 56.1555 88.7262 56.3125 88.5812 56.4282C88.4362 56.5439 88.2395 56.6089 88.0344 56.6089H80.1587V59.0336H88.0344C88.2395 59.0336 88.4362 59.0986 88.5812 59.2143C88.7262 59.33 88.8077 59.4869 88.8077 59.6505V61.9827C88.8113 62.0655 88.794 62.1481 88.7568 62.2254C88.7195 62.3028 88.6632 62.3734 88.591 62.433C88.5188 62.4926 88.4323 62.54 88.3367 62.5723C88.2411 62.6047 88.1383 62.6213 88.0344 62.6213Z" fill="#06C755"/>
<path id="Vector_3" d="M45.1659 62.6204C45.371 62.6204 45.5676 62.5554 45.7127 62.4397C45.8577 62.324 45.9391 62.1671 45.9391 62.0035V59.6713C45.9391 59.5077 45.8577 59.3508 45.7127 59.2351C45.5676 59.1194 45.371 59.0543 45.1659 59.0543H37.2901V47.6404C37.2901 47.4768 37.2087 47.3198 37.0637 47.2041C36.9186 47.0884 36.722 47.0234 36.5169 47.0234H33.5784C33.3734 47.0234 33.1767 47.0884 33.0317 47.2041C32.8866 47.3198 32.8052 47.4768 32.8052 47.6404V61.9942C32.8052 62.1578 32.8866 62.3148 33.0317 62.4305C33.1767 62.5462 33.3734 62.6112 33.5784 62.6112H45.1775L45.1659 62.6204Z" fill="#06C755"/>
<path id="Vector_4" d="M52.1404 46.998H49.2174C48.7818 46.998 48.4287 47.2798 48.4287 47.6274V61.9904C48.4287 62.338 48.7818 62.6197 49.2174 62.6197H52.1404C52.576 62.6197 52.9291 62.338 52.9291 61.9904V47.6274C52.9291 47.2798 52.576 46.998 52.1404 46.998Z" fill="#06C755"/>
<path id="Vector_5" d="M72.0601 46.998H69.1372C68.9321 46.998 68.7354 47.063 68.5904 47.1788C68.4454 47.2945 68.3639 47.4514 68.3639 47.615V56.1477L60.1286 47.2726C60.1098 47.2491 60.0878 47.2274 60.0629 47.2078L60.0165 47.1708L59.974 47.143H59.9508L59.9082 47.1184H59.885L59.8425 47.0998H59.8154H59.7729H59.7458H59.6994H59.6685H59.6221H59.5912H59.5487H56.5677C56.3626 47.0998 56.1659 47.1648 56.0209 47.2806C55.8759 47.3963 55.7944 47.5532 55.7944 47.7168V62.0799C55.7944 62.2435 55.8759 62.4004 56.0209 62.5161C56.1659 62.6318 56.3626 62.6969 56.5677 62.6969H59.4945C59.6996 62.6969 59.8963 62.6318 60.0413 62.5161C60.1863 62.4004 60.2678 62.2435 60.2678 62.0799V53.4639L68.5147 62.3483C68.5687 62.4112 68.6369 62.4656 68.7158 62.5087L68.7622 62.5334H68.7853L68.824 62.5488H68.8627H68.8897H68.9439C69.0122 62.5622 69.0823 62.5695 69.1527 62.5704H72.0601C72.2652 62.5704 72.4619 62.5054 72.6069 62.3897C72.7519 62.274 72.8334 62.117 72.8334 61.9534V47.6274C72.8355 47.5453 72.817 47.4637 72.7791 47.3875C72.7411 47.3112 72.6845 47.2417 72.6125 47.1831C72.5405 47.1245 72.4545 47.0779 72.3597 47.0462C72.2648 47.0144 72.163 46.998 72.0601 46.998Z" fill="#06C755"/>
</g>
</g>
</g>
<defs>
<clipPath id="clip0_243_164803">
<rect width="120" height="120" rx="12" fill="white"/>
</clipPath>
</defs>
</svg>
