<?xml version="1.0" encoding="UTF-8"?>
<svg id="_圖層_1" data-name=" 圖層 1" xmlns="http://www.w3.org/2000/svg" version="1.1" viewBox="0 0 340.2 118.4">
  <defs>
    <style>
      .cls-1 {
        fill: #23265b;
      }

      .cls-1, .cls-2, .cls-3 {
        stroke-width: 0px;
      }

      .cls-2 {
        fill: #41adb9;
      }

      .cls-3 {
        fill: #4b56a3;
      }
    </style>
  </defs>
  <g>
    <path class="cls-3" d="M76.9,39.1c0-7.1-5.8-12.9-12.9-12.9H31.9c-7.1,0-12.9,5.8-12.9,12.9v40.2c0,7.1,5.8,12.9,12.9,12.9h32.1c3.7,0,12.9,0,12.9,0,0,0,0-9.5,0-12.9v-40.2ZM64.3,84.7H31.7c-2.7,0-4.8-2.9-4.8-5.6v-40.6c0-2.7,2.1-4.8,4.8-4.8h32.6c2.7,0,4.8,2.2,4.8,4.8v40.6c0,1.3,0,5.6,0,5.6,0,0-3.5,0-4.9,0Z"/>
    <path class="cls-2" d="M36.7,51.7h3.9c.3,0,.5,0,.7-.2.2-.1.3-.3.3-.5v-5.3c0-.2,0-.4-.3-.5-.2-.1-.4-.2-.7-.2h-3.9c-.7,0-1,.2-1,.7v5.3c0,.5.3.7,1,.7Z"/>
    <path class="cls-2" d="M60,45.2c-.2-.1-.4-.2-.7-.2h-3.9c-.7,0-1,.2-1,.7v5.3c0,.5.3.7,1,.7h3.9c.3,0,.5,0,.7-.2.2-.1.3-.3.3-.5v-5.3c0-.2,0-.4-.3-.5Z"/>
    <path class="cls-2" d="M60,54.6c-.2-.1-.4-.2-.7-.2h-4c-.7,0-1,.2-1,.7v.3s0,14.8,0,14.8c0,1.3-1.1,2.4-2.4,2.4h-8c-1.3,0-2.4-1.1-2.4-2.4v-14s0,0,0,0v-.4c0-.2,0-.4-.3-.5-.2-.1-.4-.2-.7-.2h-4c-.7,0-1,.2-1,.7v.4h0v15.2c0,3.5,3.2,6,6.7,6h11.1c3.5,0,6.8-2.5,6.8-6v-16.3c0-.2,0-.4-.3-.5Z"/>
  </g>
  <path class="cls-1" d="M144.4,48.5h5.9c.8,0,1.5.3,2.1,1l22.5,29.2v-29.5c0-.5.2-.7.7-.7h5.9c.8,0,1.5.3,2.1,1l32.1,41.8c.1.2.1.4,0,.6-.1.2-.3.3-.5.3h-8c-.8,0-1.5-.3-2-1l-22.5-29.2v29.5c0,.2,0,.4-.2.5-.1.1-.3.2-.5.2h-5.9c-.8,0-1.5-.3-2.1-1l-22.4-29.2v29.5c0,.2,0,.4-.2.5-.2.1-.4.2-.6.2h-6.4c-.2,0-.4,0-.5-.2-.1-.1-.2-.3-.2-.5v-42.2c0-.2,0-.4.2-.5.1-.1.3-.2.5-.2ZM207.9,69.4v-20.2c0-.5.2-.7.7-.7h5.9c.8,0,1.5.3,2.1,1l22.4,29.2v-29.5c0-.5.3-.7.8-.7h6.4c.5,0,.7.2.7.7v42.2c0,.2,0,.4-.2.5-.1.1-.3.2-.5.2h-5.9c-.8,0-1.5-.3-2.1-1l-22.5-29.2v17.1c0,.2-.1.4-.3.5-.2,0-.4,0-.7-.2l-6.4-8.4c-.3-.5-.5-1-.5-1.6Z"/>
  <g>
    <path class="cls-1" d="M257.2,48.6h5.2c.9,0,1.3.3,1.3,1v7.1c0,.6-.4,1-1.3,1h-5.2c-.3,0-.6,0-.9-.3-.2-.2-.4-.4-.4-.7v-7.1c0-.3.1-.5.4-.7.2-.2.5-.3.9-.3Z"/>
    <path class="cls-1" d="M257.2,62.2h5.2c.9,0,1.3.3,1.3,1v28.1c0,.6-.5,1-1.4,1h-5.2c-.3,0-.6,0-.9-.3-.2-.2-.4-.4-.4-.7v-28.1c0-.3.2-.5.4-.7.2-.2.5-.3.9-.3Z"/>
  </g>
  <path class="cls-1" d="M135.2,57v26.6c0,4.7-3.8,8.6-8.5,8.6h-21.3c-4.7,0-8.6-3.8-8.6-8.6v-26.6c0-4.7,3.8-8.6,8.5-8.6h21.3c4.7,0,8.6,3.8,8.6,8.6ZM127.2,58.1c0-1.8-1.4-3.2-3.2-3.2h-16.1c-1.8,0-3.2,1.4-3.2,3.2v23.9c0,1.8,1.4,3.7,3.2,3.7h16.1c1.8,0,3.2-1.9,3.2-3.7v-23.9Z"/>
  <path class="cls-3" d="M273.7,83.2h5.2c.9,0,1.3.3,1.3,1v7.1c0,.6-.4,1-1.3,1h-5.2c-.3,0-.6,0-.9-.3-.2-.2-.4-.4-.4-.7v-7.1c0-.3.1-.5.4-.7.2-.2.5-.3.9-.3Z"/>
  <path class="cls-1" d="M288.1,50.1v-.5c0-.6.4-1,1.3-1h5.4c.3,0,.6,0,.9.3.2.2.4.4.4.7v.5s0,0,0,0v32.4c0,1.8,1.4,3.2,3.2,3.2h10.7c1.8,0,3.2-1.4,3.2-3.2v-32.5s0-.4,0-.4c0-.6.4-1,1.3-1h5.4c.3,0,.6,0,.9.3.2.2.4.4.4.7v.4s0,34.1,0,34.1c0,4.8-4.3,8.1-9.1,8.1h-15c-4.8,0-9.1-3.4-9.1-8.1v-34h0Z"/>
</svg>