<?xml version="1.0" encoding="UTF-8"?>
<svg id="_圖層_1" data-name="圖層 1" xmlns="http://www.w3.org/2000/svg" version="1.1" viewBox="0 0 340.2 340.2">
  <defs>
    <style>
      .cls-1 {
        fill: #43aeb9;
      }

      .cls-1, .cls-2, .cls-3 {
        stroke-width: 0px;
      }

      .cls-2 {
        fill: #4b56a4;
      }

      .cls-3 {
        fill: #23265b;
      }
    </style>
  </defs>
  <path class="cls-2" d="M245.1,261.3h6.1c1,0,1.6.4,1.6,1.1v8.2c0,.7-.5,1.1-1.6,1.1h-6.1c-.4,0-.7-.1-1-.3-.3-.2-.4-.5-.4-.8v-8.2c0-.3.1-.6.4-.8.3-.2.6-.3,1-.3Z"/>
  <path class="cls-3" d="M95.2,221.1h6.9c1,0,1.8.4,2.4,1.2l26.1,33.9v-34.2c0-.6.3-.9.9-.9h6.9c1,0,1.8.4,2.4,1.2l37.2,48.5c.1.2.2.4,0,.7-.1.2-.3.4-.5.4h-9.3c-.9,0-1.7-.4-2.3-1.2l-26.1-33.9v34.2c0,.2,0,.4-.3.6-.2.2-.4.3-.6.3h-6.9c-1,0-1.8-.4-2.4-1.2l-26-33.9v34.2c0,.2,0,.4-.3.6-.2.2-.4.3-.7.3h-7.5c-.2,0-.4,0-.6-.3-.2-.2-.3-.4-.3-.6v-49c0-.2,0-.4.3-.6.2-.2.4-.3.6-.3ZM168.8,245.4v-23.5c0-.6.3-.9.9-.9h6.9c1,0,1.8.4,2.4,1.2l26,33.9v-34.2c0-.6.3-.9.9-.9h7.5c.6,0,.9.3.9.9v49c0,.2,0,.4-.3.6-.2.2-.4.3-.6.3h-6.9c-1,0-1.8-.4-2.4-1.2l-26.1-33.9v19.8c0,.3-.1.5-.4.6-.3,0-.5,0-.8-.2l-7.5-9.7c-.4-.5-.6-1.1-.6-1.8Z"/>
  <g>
    <path class="cls-3" d="M226,221.2h6.1c1,0,1.6.4,1.6,1.1v8.2c0,.7-.5,1.1-1.6,1.1h-6.1c-.4,0-.7-.1-1-.3-.3-.2-.4-.5-.4-.8v-8.2c0-.3.1-.6.4-.8.3-.2.6-.3,1-.3Z"/>
    <path class="cls-3" d="M226,237h6.1c1,0,1.6.4,1.6,1.1v32.5c0,.7-.6,1.1-1.6,1.1h-6.1c-.4,0-.7-.1-1-.3-.3-.2-.4-.5-.4-.8v-32.5c0-.3.2-.6.5-.8.3-.2.6-.3,1-.3Z"/>
  </g>
  <path class="cls-3" d="M84.5,231v30.8c0,5.5-4.4,9.9-9.9,9.9h-24.6c-5.5,0-9.9-4.4-9.9-9.9v-30.8c0-5.5,4.4-9.9,9.9-9.9h24.6c5.5,0,9.9,4.4,9.9,9.9ZM75.3,232.3c0-2.1-1.7-3.7-3.7-3.7h-18.6c-2.1,0-3.7,1.7-3.7,3.7v27.7c0,2.1,1.7,4.3,3.7,4.3h18.6c2.1,0,3.7-2.2,3.7-4.3v-27.7Z"/>
  <path class="cls-3" d="M261.7,223v-.6c0-.7.5-1.1,1.6-1.1h6.3c.4,0,.7.1,1,.3.3.2.4.5.4.8v.6s0,0,0,0v37.6c0,2.1,1.7,3.7,3.7,3.7h12.4c2.1,0,3.7-1.7,3.7-3.7v-37.7s0-.4,0-.4c0-.7.5-1.1,1.6-1.1h6.3c.4,0,.7.1,1,.3.3.2.4.5.4.8v.4s0,39.6,0,39.6c0,5.5-5,9.4-10.5,9.4h-17.4c-5.5,0-10.5-3.9-10.5-9.4v-39.4h0Z"/>
  <g>
    <path class="cls-2" d="M225.8,93.2c0-13.7-11.1-24.9-24.9-24.9h-61.8c-13.7,0-24.9,11.1-24.9,24.9v77.3c0,13.7,11.2,24.9,24.9,24.9h61.8c7.1,0,24.7,0,24.7,0,0,0,.1-18.2.1-24.9v-77.3ZM201.5,181h-62.8c-5.2,0-9.3-5.6-9.3-10.8v-78.1c0-5.2,4.1-9.3,9.3-9.3h62.8c5.2,0,9.3,4.2,9.3,9.3v78.1c0,2.6,0,10.7,0,10.7,0,0-6.8,0-9.3,0Z"/>
    <path class="cls-1" d="M148.3,117.6h7.5c.5,0,.9-.1,1.3-.4.3-.3.5-.6.5-1v-10.2c0-.4-.2-.7-.5-1-.3-.3-.8-.4-1.3-.4h-7.5c-1.3,0-1.9.5-1.9,1.4v10.2c0,.9.6,1.4,1.9,1.4Z"/>
    <path class="cls-1" d="M193.3,105.1c-.3-.3-.8-.4-1.3-.4h-7.5c-1.3,0-1.9.5-1.9,1.4v10.2c0,.9.6,1.4,1.9,1.4h7.5c.5,0,.9-.1,1.3-.4.3-.3.5-.6.5-1v-10.2c0-.4-.2-.7-.5-1Z"/>
    <path class="cls-1" d="M193.3,123.1c-.3-.3-.8-.4-1.3-.4h-7.7c-1.3,0-1.9.5-1.9,1.4v.5s0,28.5,0,28.5c0,2.5-2.1,4.6-4.6,4.6h-15.3c-2.5,0-4.6-2.1-4.6-4.6v-26.9s0,0,0,0v-.7c0-.4-.2-.7-.5-1-.3-.3-.8-.4-1.3-.4h-7.7c-1.3,0-1.9.5-1.9,1.4v.7h0v29.2c0,6.8,6.2,11.6,13,11.6h21.4c6.8,0,13-4.8,13-11.6v-31.3c0-.4-.2-.7-.5-1Z"/>
  </g>
</svg>