<svg width="48" height="48" viewBox="0 0 48 48" fill="none" xmlns="http://www.w3.org/2000/svg">
<g id="user-full">
<path id="Vector" d="M24 24.0034C22.35 24.0034 21 23.4623 19.95 22.3802C18.9 21.2981 18.375 19.9068 18.375 18.2063C18.375 16.5058 18.9 15.1145 19.95 14.0324C21 12.9502 22.35 12.4092 24 12.4092C25.65 12.4092 27 12.9502 28.05 14.0324C29.1 15.1145 29.625 16.5058 29.625 18.2063C29.625 19.9068 29.1 21.2981 28.05 22.3802C27 23.4623 25.65 24.0034 24 24.0034ZM12 36.4092V32.7763C12 31.7973 12.2375 30.9599 12.7125 30.2643C13.1875 29.5686 13.8 29.0404 14.55 28.6797C16.225 27.9068 17.8313 27.3271 19.3688 26.9406C20.9062 26.5541 22.45 26.3609 24 26.3609C25.55 26.3609 27.0875 26.5605 28.6125 26.9599C30.1375 27.3593 31.7375 27.9325 33.4125 28.6797C34.1875 29.0404 34.8125 29.5686 35.2875 30.2643C35.7625 30.9599 36 31.7973 36 32.7763V36.4092H12Z" fill="white"/>
</g>
</svg>
